<svg width="60" height="55" viewBox="0 0 60 55" fill="none" xmlns="http://www.w3.org/2000/svg">
<path d="M47.6471 14.5588L46.4706 31.5441L47.6471 46.9118L50.7353 48.5294L53.8235 46.9118L55 31.5441L53.8235 14.5588L50.7353 13.4804L47.6471 14.5588Z" fill="#C4E83B"/>
<path d="M60 14.5588L56.9118 12.9412L53.8235 14.5588V46.9118L56.9118 48.5294L60 46.9118C60 44.8406 60 29.4725 60 27.5L58.7844 25.7386L60 22.7851V14.5588Z" fill="#9DDB2C"/>
<path d="M47.6471 55H53.8235L55 50.9559L53.8235 46.9117C51.7652 46.9117 49.7054 46.9117 47.6471 46.9117L46.4706 50.9559L47.6471 55Z" fill="#9DDB2C"/>
<path d="M60 55C60 52.8222 60 48.1804 60 46.9117C57.9417 46.9117 55.8819 46.9117 53.8235 46.9117V55H56.9118H60Z" fill="#95CB40"/>
<path d="M47.6471 14.5588H53.8235L56.4706 10.5147L53.8235 6.47058C51.7652 6.47058 49.7054 6.47058 47.6471 6.47058L46.4706 10.5147L47.6471 14.5588Z" fill="#9DDB2C"/>
<path d="M60 14.5588C60 12.381 60 7.73925 60 6.47058C57.9417 6.47058 55.8819 6.47058 53.8235 6.47058V14.5588H60Z" fill="#95CB40"/>
<path d="M47.6471 34.1086L46.4706 36.397L47.6471 38.6855L53.8235 33.0237L55 30.7353L53.8235 28.4468C53.1272 29.0853 48.3809 33.436 47.6471 34.1086Z" fill="#9DDB2C"/>
<path d="M60 22.7851C59.3037 23.4234 54.5574 27.7741 53.8235 28.4469V33.0237C54.5199 32.3854 59.2661 28.0347 60 27.362C60 25.7608 60 24.3862 60 22.7851Z" fill="#95CB40"/>
<path d="M30 45.2941L28.2353 46.3725L26.4706 45.2941L25.2941 29.1176L26.4706 9.70587L28.2353 8.62744L30 9.70587L31.1765 27.5L30 45.2941Z" fill="#4D5E80"/>
<path d="M33.5294 45.2941L31.7647 46.3725L30 45.2941C30 43.3178 30 11.6822 30 9.70587L31.7647 8.62744L33.5294 9.70587L34.7059 27.5L33.5294 45.2941Z" fill="#3D4566"/>
<path d="M30 9.70588H26.4706L25.2941 7.98028L26.4706 6.47059V0H30L31.1765 4.85294L30 9.70588Z" fill="#3D4566"/>
<path d="M33.5294 9.70588H30C30 8.53158 30 1.18207 30 0H33.5294V3.23529L34.7059 6.20098L33.5294 9.70588Z" fill="#2E2E4D"/>
<path d="M30 29.1176C28.7656 29.1176 27.7049 29.1176 26.4706 29.1176L25.2941 27.5L26.4706 25.8823H30L31.1765 27.5L30 29.1176Z" fill="#3D4566"/>
<path d="M33.5294 29.1176C32.2951 29.1176 31.2344 29.1176 30 29.1176C30 27.9861 30 27.0138 30 25.8823H33.5294L34.7059 27.5L33.5294 29.1176Z" fill="#2E2E4D"/>
<path d="M30 55C28.7656 55 27.7049 55 26.4706 55L25.2941 50.1471L26.4706 45.2941H30L31.1765 50.1471L30 55Z" fill="#3D4566"/>
<path d="M33.5294 55C32.2951 55 31.2344 55 30 55C30 53.8257 30 46.4762 30 45.2941H33.5294L34.7059 50.1471L33.5294 55Z" fill="#2E2E4D"/>
<path d="M7.0588 55C6.20481 55 0.859631 55 -1.52588e-05 55V48.5294L1.17645 45.2941L-1.52588e-05 42.0588C-1.52588e-05 41.3286 -1.52588e-05 16.9063 -1.52588e-05 16.1765L1.17645 13.2647L-1.52588e-05 9.70588V3.23529H7.0588L8.23528 29.1176L7.0588 55Z" fill="#FFDF40"/>
<path d="M14.1176 55C13.2636 55 7.91846 55 7.05881 55C7.05881 53.5401 7.05881 4.69516 7.05881 3.23529H14.1176V6.47058L15.2941 29.1176L14.1176 55Z" fill="#FFBE40"/>
<path d="M7.0588 16.1765C6.20481 16.1765 0.859631 16.1765 -1.52588e-05 16.1765C-1.52588e-05 15.3936 -1.52588e-05 10.4939 -1.52588e-05 9.70587H7.0588L8.23528 12.9412L7.0588 16.1765Z" fill="#FFBE40"/>
<path d="M14.1176 16.1765C13.2636 16.1765 7.91846 16.1765 7.05881 16.1765C7.05881 15.3936 7.05881 10.4939 7.05881 9.70587H14.1176L15.2941 12.9412L14.1176 16.1765Z" fill="#FF9F40"/>
<path d="M7.05882 35.5882C6.44164 35.5882 5.91129 35.5882 5.29411 35.5882C5.29411 34.0225 5.29411 24.2231 5.29411 22.647H7.05882L8.23529 29.1176L7.05882 35.5882Z" fill="#FFBE40"/>
<path d="M8.82352 35.5882C8.20634 35.5882 7.67599 35.5882 7.05881 35.5882C7.05881 34.0225 7.05881 24.2231 7.05881 22.647H8.82352V35.5882Z" fill="#FF9F40"/>
<path d="M7.0588 48.5294C6.20481 48.5294 0.859631 48.5294 -1.52588e-05 48.5294C-1.52588e-05 47.7466 -1.52588e-05 42.8468 -1.52588e-05 42.0588H7.0588L8.23528 45.2941L7.0588 48.5294Z" fill="#FFBE40"/>
<path d="M14.1176 48.5294C13.2636 48.5294 7.91846 48.5294 7.05881 48.5294C7.05881 47.7466 7.05881 42.8468 7.05881 42.0588H14.1176L15.2941 45.2941L14.1176 48.5294Z" fill="#FF9F40"/>
<path d="M14.1176 6.47058V9.03509L15.2941 11.5124L14.1176 13.6121V18.7411L15.2941 21.2183L14.1176 23.3212V28.447L15.2941 31.0453L14.1176 33.0238V48.5294L17.2059 49.6078L20.2941 48.5294L21.4706 27.5L20.2941 6.47058C18.2358 6.47058 16.176 6.47058 14.1176 6.47058Z" fill="#5ECBF1"/>
<path d="M26.4706 6.47058C24.4122 6.47058 22.3525 6.47058 20.2941 6.47058V48.5294L23.3823 49.6078L26.4706 48.5294V44.3474L25.2941 41.924L26.4706 39.7704V34.6414L25.2941 32.1912L26.4706 30.0645C26.4706 28.4335 26.4706 26.5665 26.4706 24.9355L25.2941 22.2696L26.4706 20.3586V6.47058Z" fill="#4793FF"/>
<path d="M14.1176 55H20.2941L21.4706 51.7647L20.2941 48.5294C18.2358 48.5294 16.176 48.5294 14.1176 48.5294V55Z" fill="#4793FF"/>
<path d="M26.4706 55C26.4706 54.2172 26.4706 49.3174 26.4706 48.5294C24.4122 48.5294 22.3525 48.5294 20.2941 48.5294V55H26.4706Z" fill="#525CDD"/>
<path d="M14.1176 13.612L20.2941 19.2737L21.4706 16.9853L20.2941 14.6969C19.5978 14.0584 14.8515 9.70782 14.1176 9.0351V13.612Z" fill="#4793FF"/>
<path d="M26.4706 24.9355C26.4706 23.3343 26.4706 21.9598 26.4706 20.3586C25.7742 19.7202 21.028 15.3696 20.2941 14.6968V19.2737C20.9905 19.9121 25.7367 24.2628 26.4706 24.9355Z" fill="#525CDD"/>
<path d="M14.1176 23.3179C14.814 23.9562 19.5602 28.3069 20.2941 28.9796L21.4706 26.6912L20.2941 24.4028C19.5978 23.7643 14.8515 19.4137 14.1176 18.741V23.3179Z" fill="#4793FF"/>
<path d="M26.4706 34.6414C26.4706 33.0402 26.4706 31.6656 26.4706 30.0645C25.7742 29.4262 21.028 25.0755 20.2941 24.4027V28.9796C20.9905 29.618 25.7367 33.9686 26.4706 34.6414Z" fill="#525CDD"/>
<path d="M14.1176 33.0237L20.2941 38.6855L21.4706 36.397L20.2941 34.1086C19.5978 33.4703 14.8515 29.1196 14.1176 28.4468V33.0237Z" fill="#4793FF"/>
<path d="M26.4706 44.3473C26.4706 42.7461 26.4706 41.3715 26.4706 39.7704C25.7742 39.1321 21.028 34.7813 20.2941 34.1086V38.6855C20.9905 39.3239 25.7367 43.6745 26.4706 44.3473Z" fill="#525CDD"/>
<path d="M40.5882 48.5294L37.0588 49.6078L33.5294 48.5294C33.5294 46.8238 33.5294 19.4996 33.5294 17.7941L37.0588 16.7157L40.5882 17.7941L41.7647 33.1617L40.5882 48.5294Z" fill="#FD7C50"/>
<path d="M47.647 48.5294L44.1176 49.6078L40.5882 48.5294C40.5882 46.8238 40.5882 19.4996 40.5882 17.7941L44.1176 16.7157L47.647 17.7941V48.5294Z" fill="#FD445F"/>
<path d="M40.5882 17.7941C39.7342 17.7941 34.3891 17.7941 33.5294 17.7941C33.5294 17.0113 33.5294 12.1115 33.5294 11.3235L37.0588 10.2451L40.5882 11.3235L41.7647 14.5588L40.5882 17.7941Z" fill="#FD445F"/>
<path d="M47.647 17.7941C46.793 17.7941 41.4479 17.7941 40.5882 17.7941C40.5882 17.0113 40.5882 12.1115 40.5882 11.3235L44.1176 10.2451L47.647 11.3235V17.7941Z" fill="#E30F5A"/>
<path d="M40.5882 11.3235C39.7342 11.3235 34.3891 11.3235 33.5294 11.3235C33.5294 9.14574 33.5294 4.50396 33.5294 3.23529H40.5882L41.7647 7.27941L40.5882 11.3235Z" fill="#FD7C50"/>
<path d="M47.647 11.3235C46.793 11.3235 41.4479 11.3235 40.5882 11.3235C40.5882 9.14574 40.5882 4.50396 40.5882 3.23529H47.647V11.3235Z" fill="#FD445F"/>
<path d="M40.5882 55C39.7342 55 34.3891 55 33.5294 55C33.5294 54.2172 33.5294 49.3174 33.5294 48.5294H40.5882L41.7647 51.7647L40.5882 55Z" fill="#FD445F"/>
<path d="M47.647 55C46.793 55 41.4479 55 40.5882 55C40.5882 54.2172 40.5882 49.3174 40.5882 48.5294H47.647V55Z" fill="#E30F5A"/>
<path d="M40.5882 42.0588C39.9711 42.0588 39.4407 42.0588 38.8235 42.0588C38.8235 41.5568 38.8235 24.7664 38.8235 24.2647H40.5882L41.7647 33.1618L40.5882 42.0588Z" fill="#FD445F"/>
<path d="M42.3529 42.0588C41.7357 42.0588 41.2054 42.0588 40.5882 42.0588C40.5882 41.5568 40.5882 24.7664 40.5882 24.2647H42.3529V42.0588Z" fill="#E30F5A"/>
</svg>
